# xmcd CD database file
#
# Track frame offsets:
#	150
#	22842
#	60537
#	81667
#	113592
#	135335
#	164667
#	184342
#	220684
#	238380
#
# Disc length: 3385 seconds
#
# Revision: 4
# Processed by: cddbd v1.5.1PL2 Copyright (c) Steve Scherf et al.
# Submitted via: CDex 1.51
#
DISCID=880d370a
DTITLE=Bobby Previte - Claude's Late Morning
DYEAR=1988
DGENRE=Jazz
TTITLE0=Look Both Ways
TTITLE1=One Bowl
TTITLE2=The King So Far
TTITLE3=Sometimes You Need An Airport
TTITLE4=The Voice
TTITLE5=Claude's Late Morning
TTITLE6=First Song For Kate
TTITLE7=Ballet
TTITLE8=Look Both Ways [Reprise]
TTITLE9=Bud
EXTD=MillenniumMusicProjectFormat YEAR: 1988
EXTT0=
EXTT1=
EXTT2=
EXTT3=
EXTT4=
EXTT5=
EXTT6=
EXTT7=
EXTT8=
EXTT9=
PLAYORDER=
